<svg width="58" height="58" viewBox="0 0 58 58" fill="none" xmlns="http://www.w3.org/2000/svg">
<mask id="mask0" mask-type="alpha" maskUnits="userSpaceOnUse" x="35" y="36" width="13" height="12">
<path fill-rule="evenodd" clip-rule="evenodd" d="M35.7258 36.0498H47.3271V47.6505H35.7258V36.0498Z" fill="white"/>
</mask>
<g mask="url(#mask0)">
<path fill-rule="evenodd" clip-rule="evenodd" d="M47.3038 41.3336C47.588 44.5248 45.2332 47.3425 42.0432 47.6278C38.8521 47.912 36.0344 45.5572 35.7491 42.3672C35.4649 39.176 37.8197 36.3584 41.0097 36.073C44.2008 35.7888 47.0185 38.1436 47.3038 41.3336Z" fill="#FFEB40"/>
</g>
<path fill-rule="evenodd" clip-rule="evenodd" d="M30.1442 28.8953C29.3949 28.8883 28.7789 28.3049 28.7279 27.559L28.214 21.5026C28.2639 20.5271 29.0782 19.7661 30.0549 19.7835L37.0323 20.0433C39.8964 20.0932 41.7361 24.1648 42.17 27.0845C42.3289 28.1506 41.474 29.1006 40.3963 29.0902L30.1442 28.8953Z" fill="#FFEB40"/>
<path d="M24.199 17.0376V26.6853" stroke="black" stroke-width="1.4" stroke-linecap="round" stroke-linejoin="round"/>
<path d="M8.09949 26.685H41.5608" stroke="black" stroke-width="1.4" stroke-linecap="round" stroke-linejoin="round"/>
<path d="M10.3471 40.3231H9.08854C7.99002 40.3231 7.0249 39.3939 7.0249 38.2583V26.1015L8.6489 17.8747C8.8693 16.76 9.99798 15.6986 11.1301 15.6986C29.5753 15.6986 23.4111 15.8146 32.7815 15.6603C35.5238 15.6151 37.7034 25.8439 40.3621 26.4274L48.7002 28.2625C50.5655 28.672 51.1907 30.5524 51.1907 31.2368V38.2583C51.1907 39.3672 49.8196 40.3231 48.7095 40.3231H46.2874" stroke="black" stroke-width="1.4" stroke-linecap="round" stroke-linejoin="round"/>
<path d="M34.438 40.3232H21.4878" stroke="black" stroke-width="1.4" stroke-linecap="round" stroke-linejoin="round"/>
<path fill-rule="evenodd" clip-rule="evenodd" d="M15.9035 38.3838C17.0334 38.3838 17.9486 39.299 17.9486 40.4289C17.9486 41.5575 17.0334 42.4739 15.9035 42.4739C14.7737 42.4739 13.8573 41.5575 13.8573 40.4289C13.8573 39.299 14.7737 38.3838 15.9035 38.3838Z" stroke="black" stroke-width="1.4" stroke-linecap="round" stroke-linejoin="round"/>
<path fill-rule="evenodd" clip-rule="evenodd" d="M40.1213 38.3838C41.2511 38.3838 42.1663 39.299 42.1663 40.4289C42.1663 41.5575 41.2511 42.4739 40.1213 42.4739C38.9914 42.4739 38.0762 41.5575 38.0762 40.4289C38.0762 39.299 38.9914 38.3838 40.1213 38.3838Z" stroke="black" stroke-width="1.4" stroke-linecap="round" stroke-linejoin="round"/>
<path fill-rule="evenodd" clip-rule="evenodd" d="M40.1209 35.0972C43.065 35.0972 45.4523 37.4844 45.4523 40.4285C45.4523 43.3726 43.065 45.7587 40.1209 45.7587C37.1768 45.7587 34.7896 43.3726 34.7896 40.4285C34.7896 37.4844 37.1768 35.0972 40.1209 35.0972Z" stroke="black" stroke-width="1.4" stroke-linecap="round" stroke-linejoin="round"/>
<path fill-rule="evenodd" clip-rule="evenodd" d="M15.9021 35.0972C18.8462 35.0972 21.2335 37.4844 21.2335 40.4285C21.2335 43.3726 18.8462 45.7587 15.9021 45.7587C12.9569 45.7587 10.5696 43.3726 10.5696 40.4285C10.5696 37.4844 12.9569 35.0972 15.9021 35.0972Z" stroke="black" stroke-width="1.4" stroke-linecap="round" stroke-linejoin="round"/>
</svg>
