<svg width="58" height="58" viewBox="0 0 58 58" fill="none" xmlns="http://www.w3.org/2000/svg">
<path fill-rule="evenodd" clip-rule="evenodd" d="M23.5108 29.8702L28.7081 26.5366L33.9066 29.8702L32.5229 24.2152L37.1181 19.8336L31.8641 19.3911H31.3181L28.9981 14.127L26.4883 19.297L20.7184 19.8336L24.9197 23.7271L23.5108 29.8702Z" fill="white"/>
<path d="M44.6573 30.2148V15.4499C44.6573 12.5228 42.2844 10.1499 39.3573 10.1499H36.9072C33.9801 10.1499 31.6073 12.5227 31.6072 15.4498L31.6067 41.7587C31.6067 41.7593 31.6072 41.7599 31.6079 41.7599C38.776 41.7599 44.6573 36.5572 44.6573 30.2148Z" fill="#FFEA52"/>
<path fill-rule="evenodd" clip-rule="evenodd" d="M23.5108 29.9532L28.7081 26.6196L33.9066 29.9532L32.5229 24.2982L37.1181 19.9166L31.8641 19.4741H31.3181L28.9981 14.21L26.4883 19.38L20.7184 19.9166L24.9197 23.8101L23.5108 29.9532Z" fill="white"/>
<path d="M28.7073 13.6302L29.3536 13.3614C29.244 13.0979 28.9854 12.9272 28.7 12.9302C28.4146 12.9332 28.1596 13.1091 28.0555 13.3749L28.7073 13.6302ZM31.1239 19.4415L30.4776 19.7103C30.5798 19.9561 30.8126 20.1226 31.0782 20.14L31.1239 19.4415ZM37.1173 19.8336L37.5795 20.3593C37.792 20.1725 37.8711 19.876 37.78 19.6081C37.6888 19.3402 37.4454 19.1536 37.163 19.1351L37.1173 19.8336ZM32.4214 23.9621L31.9592 23.4364C31.7622 23.6095 31.6786 23.8783 31.7425 24.1327L32.4214 23.9621ZM33.9058 29.8702L33.54 30.467C33.7826 30.6157 34.091 30.6027 34.3202 30.4343C34.5495 30.2659 34.654 29.9755 34.5847 29.6996L33.9058 29.8702ZM28.5859 26.6101L28.9517 26.0133C28.7227 25.8729 28.4336 25.876 28.2077 26.0211L28.5859 26.6101ZM23.51 29.8702L22.8277 29.7137C22.7641 29.991 22.8747 30.2792 23.1074 30.4429C23.3402 30.6065 23.6489 30.6129 23.8883 30.4592L23.51 29.8702ZM24.9189 23.7271L25.6012 23.8836C25.6598 23.6278 25.5705 23.3608 25.3699 23.1917L24.9189 23.7271ZM20.2973 19.8336L20.2368 19.1362C19.9549 19.1606 19.7154 19.3524 19.63 19.6222C19.5445 19.8919 19.6299 20.1866 19.8463 20.3689L20.2973 19.8336ZM26.4875 19.297L26.5479 19.9943C26.813 19.9714 27.0422 19.8 27.1392 19.5523L26.4875 19.297ZM42.0471 11.6002V10.9002C41.6605 10.9002 41.3471 11.2136 41.3471 11.6002H42.0471ZM50.1671 11.6002L50.8254 11.8382C50.903 11.6236 50.8711 11.3848 50.7401 11.1981C50.609 11.0113 50.3952 10.9002 50.1671 10.9002V11.6002ZM42.0471 21.4602H41.3471C41.3471 21.7046 41.4746 21.9314 41.6835 22.0584C41.8924 22.1853 42.1524 22.1941 42.3694 22.0815L42.0471 21.4602ZM15.9482 11.6002H16.6482C16.6482 11.2136 16.3348 10.9002 15.9482 10.9002V11.6002ZM7.82819 11.6002V10.9002C7.60009 10.9002 7.3863 11.0113 7.25525 11.198C7.1242 11.3847 7.09233 11.6235 7.16985 11.8381L7.82819 11.6002ZM15.9482 21.4602L15.6258 22.0815C15.8428 22.1941 16.1028 22.1853 16.3117 22.0584C16.5206 21.9314 16.6482 21.7046 16.6482 21.4602H15.9482ZM17.1089 49.1802C16.7223 49.1802 16.4089 49.4936 16.4089 49.8802C16.4089 50.2668 16.7223 50.5802 17.1089 50.5802V49.1802ZM40.8889 50.5802C41.2755 50.5802 41.5889 50.2668 41.5889 49.8802C41.5889 49.4936 41.2755 49.1802 40.8889 49.1802V50.5802ZM29.4076 40.3102C29.4076 39.9236 29.0942 39.6101 28.7076 39.6101C28.321 39.6101 28.0076 39.9236 28.0076 40.3102H29.4076ZM28.0076 49.3001C28.0076 49.6867 28.321 50.0001 28.7076 50.0001C29.0942 50.0001 29.4076 49.6867 29.4076 49.3001H28.0076ZM15.9492 8.41016V7.71016C15.5626 7.71016 15.2492 8.02356 15.2492 8.41016H15.9492ZM42.0492 8.41016H42.7492C42.7492 8.02356 42.4358 7.71016 42.0492 7.71016V8.41016ZM28.0609 13.899L30.4776 19.7103L31.7703 19.1727L29.3536 13.3614L28.0609 13.899ZM31.0782 20.14L37.0716 20.5321L37.163 19.1351L31.1696 18.743L31.0782 20.14ZM36.6551 19.3079L31.9592 23.4364L32.8836 24.4878L37.5795 20.3593L36.6551 19.3079ZM31.7425 24.1327L33.2269 30.0407L34.5847 29.6996L33.1003 23.7915L31.7425 24.1327ZM34.2716 29.2733L28.9517 26.0133L28.2202 27.207L33.54 30.467L34.2716 29.2733ZM28.2077 26.0211L23.1317 29.2812L23.8883 30.4592L28.9642 27.1991L28.2077 26.0211ZM24.1923 30.0266L25.6012 23.8836L24.2366 23.5706L22.8277 29.7137L24.1923 30.0266ZM25.3699 23.1917L20.7483 19.2982L19.8463 20.3689L24.4679 24.2624L25.3699 23.1917ZM20.3577 20.531L26.5479 19.9943L26.427 18.5996L20.2368 19.1362L20.3577 20.531ZM27.1392 19.5523L29.359 13.8855L28.0555 13.3749L25.8357 19.0416L27.1392 19.5523ZM42.0471 12.3002H50.1671V10.9002H42.0471V12.3002ZM49.5088 11.3622C47.8012 16.0854 45.0708 19.103 41.7248 20.8388L42.3694 22.0815C46.0627 20.1657 49.0121 16.8536 50.8254 11.8382L49.5088 11.3622ZM42.7471 21.4602V11.6002H41.3471V21.4602H42.7471ZM15.9482 10.9002H7.82819V12.3002H15.9482V10.9002ZM7.16985 11.8381C8.98219 16.8537 11.9334 20.1657 15.6258 22.0815L16.2706 20.8388C12.925 19.103 10.1931 16.0853 8.48653 11.3623L7.16985 11.8381ZM16.6482 21.4602V11.6002H15.2482V21.4602H16.6482ZM17.1089 50.5802H40.8889V49.1802H17.1089V50.5802ZM40.8889 49.1802H17.1089V50.5802H40.8889V49.1802ZM28.0076 40.3102V49.3001H29.4076V40.3102H28.0076ZM29.4076 49.3001V40.3102H28.0076V49.3001H29.4076ZM15.9492 9.11016H42.0492V7.71016H15.9492V9.11016ZM41.3492 8.41016V28.4751H42.7492V8.41016H41.3492ZM41.3492 28.4751C41.3492 34.3527 35.8644 39.3202 28.9999 39.3202V40.7202C36.4714 40.7202 42.7492 35.2822 42.7492 28.4751H41.3492ZM28.9999 39.3202H28.9986V40.7202H28.9999V39.3202ZM28.9986 39.3202C22.1326 39.3202 16.6492 34.36 16.6492 28.4751H15.2492C15.2492 35.2899 21.526 40.7202 28.9986 40.7202V39.3202ZM16.6492 28.4751V8.41016H15.2492V28.4751H16.6492Z" fill="#2F302F"/>
</svg>
