<svg width="58" height="58" viewBox="0 0 58 58" fill="none" xmlns="http://www.w3.org/2000/svg">
<path fill-rule="evenodd" clip-rule="evenodd" d="M32.0986 17.7755L21.5795 29.8532C21.6546 31.1697 35.2648 46.5221 36.225 45.6223L48.0485 34.5394L50.3191 32.4077C55.0452 27.9736 55.2977 20.5367 50.8841 15.8038C48.6766 13.4305 45.7343 12.1804 42.7364 12.0778C39.9398 11.9812 37.1192 12.887 34.8335 14.8119L32.085 17.3678" fill="#FFEB40"/>
<path d="M30.3792 40.8172C30.1076 40.5421 29.6644 40.5392 29.3893 40.8109C29.1142 41.0825 29.1114 41.5257 29.383 41.8008L30.3792 40.8172ZM32.6521 44.1156L32.154 44.6074L32.1542 44.6076L32.6521 44.1156ZM36.959 39.7132C36.6931 39.4327 36.25 39.4208 35.9694 39.6868C35.6889 39.9528 35.677 40.3958 35.943 40.6764L36.959 39.7132ZM32.0715 34.4961C31.8025 34.2185 31.3594 34.2115 31.0817 34.4805C30.8041 34.7495 30.7971 35.1927 31.0661 35.4703L32.0715 34.4961ZM37.1154 40.7081L36.6126 41.1952L36.6127 41.1953L37.1154 40.7081ZM41.0119 36.6862L41.5158 36.2002L41.5158 36.2002L41.0119 36.6862ZM36.0954 30.581C35.827 30.3028 35.3839 30.2948 35.1056 30.5632C34.8274 30.8316 34.8194 31.2747 35.0878 31.553L36.0954 30.581ZM34.6384 21.0678C34.3722 20.7874 33.9292 20.7759 33.6488 21.0421C33.3685 21.3083 33.357 21.7514 33.6232 22.0318L34.6384 21.0678ZM44.8964 32.8878L44.3887 33.3698L44.3888 33.3699L44.8964 32.8878ZM41.0103 36.6862L41.514 36.2001L41.5139 36.2L41.0103 36.6862ZM36.4692 30.9749C36.2007 30.6968 35.7576 30.689 35.4794 30.9575C35.2013 31.226 35.1935 31.6692 35.462 31.9473L36.4692 30.9749ZM11.6241 31.3463C11.8971 31.6201 12.3403 31.6207 12.6141 31.3478C12.8878 31.0748 12.8885 30.6316 12.6156 30.3578L11.6241 31.3463ZM9.33828 28.0621L8.84252 28.5563L8.84256 28.5563L9.33828 28.0621ZM25.5317 11.9956L26.0266 11.5006L26.0211 11.4951L25.5317 11.9956ZM26.9121 14.3657C27.1855 14.6391 27.6288 14.639 27.9021 14.3656C28.1754 14.0922 28.1754 13.649 27.902 13.3757L26.9121 14.3657ZM44.1684 31.6779C43.8955 31.9517 43.8962 32.3949 44.1699 32.6679C44.4437 32.9408 44.8869 32.9402 45.1599 32.6664L44.1684 31.6779ZM47.4487 29.3792L47.9444 29.8734L47.9445 29.8733L47.4487 29.3792ZM46.0091 13.8744L45.4954 14.3498L45.4955 14.35L46.0091 13.8744ZM41.7699 10.4548L41.4259 11.0645L41.4265 11.0648L41.7699 10.4548ZM29.6159 11.6656L29.1265 11.1651L29.1209 11.1706L29.6159 11.6656ZM21.2562 20.025L21.751 20.5201L21.7512 20.5199L21.2562 20.025ZM27.5767 21.6102L28.069 22.1078L28.0692 22.1075L27.5767 21.6102ZM29.682 19.5252L29.2104 19.0079C29.2033 19.0144 29.1963 19.0211 29.1894 19.0279L29.682 19.5252ZM42.011 19.0546C42.3139 18.8144 42.3647 18.3741 42.1245 18.0712C41.8843 17.7683 41.444 17.7175 41.1411 17.9577L42.011 19.0546ZM29.383 41.8008L32.154 44.6074L33.1503 43.6237L30.3792 40.8172L29.383 41.8008ZM32.1542 44.6076C33.6058 46.0767 35.687 45.7079 36.9037 44.6387C37.5264 44.0916 37.9856 43.3189 38.0509 42.4221C38.1173 41.5112 37.7703 40.569 36.959 39.7132L35.943 40.6764C36.53 41.2956 36.6878 41.8648 36.6546 42.3204C36.6204 42.7901 36.3758 43.2389 35.9796 43.5871C35.1586 44.3085 33.942 44.4251 33.1501 43.6236L32.1542 44.6076ZM31.0661 35.4703L36.6126 41.1952L37.6181 40.221L32.0715 34.4961L31.0661 35.4703ZM36.6127 41.1953C38.0672 42.6961 40.1882 42.2635 41.4176 41.1779C42.0502 40.6193 42.525 39.8357 42.6028 38.9305C42.6821 38.0073 42.34 37.0548 41.5158 36.2002L40.5081 37.1722C41.0942 37.7798 41.2478 38.3475 41.208 38.8107C41.1666 39.2919 40.9074 39.7607 40.4909 40.1285C39.6222 40.8956 38.3846 41.0119 37.618 40.2209L36.6127 41.1953ZM41.5158 36.2002L36.0954 30.581L35.0878 31.553L40.5081 37.1722L41.5158 36.2002ZM33.6232 22.0318L44.3887 33.3698L45.404 32.4058L34.6384 21.0678L33.6232 22.0318ZM44.3888 33.3699C45.1727 34.195 45.0338 35.4578 44.3077 36.2911C43.9583 36.6921 43.5201 36.927 43.0766 36.9524C42.6493 36.9769 42.1058 36.8134 41.514 36.2001L40.5066 37.1723C41.3251 38.0204 42.2473 38.4022 43.1566 38.3501C44.0497 38.2989 44.819 37.8355 45.3632 37.2108C46.4246 35.9928 46.8185 33.8949 45.4039 32.4057L44.3888 33.3699ZM41.5139 36.2L36.4692 30.9749L35.462 31.9473L40.5067 37.1724L41.5139 36.2ZM12.6156 30.3578L9.83401 27.5679L8.84256 28.5563L11.6241 31.3463L12.6156 30.3578ZM9.83405 27.5679C7.67658 25.4035 7.00694 22.881 7.32857 20.4254C7.65335 17.9459 8.99661 15.5022 10.9237 13.5879C12.8506 11.6739 15.314 10.3363 17.8187 10.011C20.3007 9.68877 22.8514 10.3538 25.0423 12.4961L26.0211 11.4951C23.5077 9.03739 20.5232 8.24813 17.6384 8.6227C14.7763 8.99431 12.0413 10.5045 9.93708 12.5947C7.83311 14.6846 6.31273 17.4013 5.94043 20.2436C5.56499 23.1099 6.36483 26.0707 8.84252 28.5563L9.83405 27.5679ZM25.0367 12.4907L26.9121 14.3657L27.902 13.3757L26.0266 11.5006L25.0367 12.4907ZM45.1599 32.6664L47.9444 29.8734L46.953 28.885L44.1684 31.6779L45.1599 32.6664ZM47.9445 29.8733C50.5235 27.2856 51.1817 24.2174 50.6707 21.2673C50.1651 18.3481 48.5223 15.5582 46.5227 13.3988L45.4955 14.35C47.3654 16.3694 48.8438 18.9224 49.2913 21.5062C49.7334 24.059 49.1766 26.6538 46.9529 28.8851L47.9445 29.8733ZM46.5229 13.3989C45.2073 11.9775 43.6937 10.7345 42.1133 9.84485L41.4265 11.0648C42.8606 11.8721 44.2623 13.0175 45.4954 14.3498L46.5229 13.3989ZM42.1139 9.84518C41.0268 9.23183 38.8819 8.52138 36.4828 8.46779C34.0695 8.41388 31.3155 9.02494 29.1265 11.1651L30.1052 12.1662C31.945 10.3675 34.286 9.81906 36.4515 9.86744C38.6313 9.91613 40.549 10.5697 41.4259 11.0645L42.1139 9.84518ZM29.1209 11.1706L20.7612 19.53L21.7512 20.5199L30.1108 12.1606L29.1209 11.1706ZM20.7614 19.5298C20.4092 19.8818 20.1642 20.2803 20.0754 20.7187C19.9847 21.1662 20.07 21.5927 20.2721 21.9618C20.6575 22.6653 21.4468 23.1402 22.2791 23.4013C23.9612 23.9289 26.3977 23.7615 28.069 22.1078L27.0843 21.1126C25.8719 22.3122 24.0196 22.48 22.6981 22.0655C22.0287 21.8555 21.6375 21.5402 21.4999 21.2891C21.4406 21.1809 21.4288 21.0891 21.4475 20.9967C21.4681 20.8951 21.5389 20.732 21.751 20.5201L20.7614 19.5298ZM28.0692 22.1075L30.1745 20.0226L29.1894 19.0279L27.0841 21.1128L28.0692 22.1075ZM30.1535 20.0426C30.76 19.4898 31.3828 19.3503 32.1092 19.411C32.8966 19.4767 33.7283 19.7659 34.77 20.0732C35.7687 20.3678 36.908 20.6578 38.1342 20.5963C39.383 20.5337 40.6804 20.1099 42.011 19.0546L41.1411 17.9577C40.035 18.8349 39.0162 19.1503 38.064 19.1981C37.0893 19.247 36.1429 19.0186 35.1661 18.7304C34.2322 18.4549 33.1986 18.0971 32.2257 18.0158C31.1917 17.9295 30.1593 18.1431 29.2104 19.0079L30.1535 20.0426Z" fill="#131313"/>
<path d="M30.3605 41.5169L30.8579 41.0244L30.8566 41.0231L30.3605 41.5169ZM30.6551 41.8143L30.1577 42.3069L30.1589 42.3082L30.6551 41.8143ZM30.6551 45.4724L30.1593 44.9782L30.1589 44.9786L30.6551 45.4724ZM28.0839 48.0555L27.5878 47.5617L28.0839 48.0555ZM24.4428 48.0555L24.9389 47.5617L24.9376 47.5604L24.4428 48.0555ZM24.1467 47.7596L23.6506 48.2534L23.6519 48.2547L24.1467 47.7596ZM24.1467 44.1001L24.6425 44.5943L24.6429 44.5939L24.1467 44.1001ZM26.7179 41.5169L27.214 42.0108L27.2144 42.0104L26.7179 41.5169ZM27.6669 36.0472L27.1704 36.5407L27.172 36.5423L27.6669 36.0472ZM27.9629 36.3431L28.4594 35.8497L28.4578 35.8481L27.9629 36.3431ZM27.9629 40.0027L28.4591 40.4965L27.9629 40.0027ZM23.7763 44.2088L23.2802 43.715L23.7763 44.2088ZM20.1337 44.2088L20.6302 43.7153L20.6286 43.7137L20.1337 44.2088ZM19.8377 43.9129L19.3412 44.4063L19.3428 44.408L19.8377 43.9129ZM19.8377 40.2533L19.3417 39.7594L19.3412 39.7599L19.8377 40.2533ZM24.0258 36.0472L24.5218 36.5412L24.5223 36.5407L24.0258 36.0472ZM25.1721 30.3133L24.6756 30.8067L24.676 30.8071L25.1721 30.3133ZM25.4682 30.6107L24.9721 31.1045V31.1045L25.4682 30.6107ZM25.4682 34.2688L24.9721 33.7749L24.972 33.775L25.4682 34.2688ZM19.3611 40.4058L18.8649 39.912L18.8646 39.9123L19.3611 40.4058ZM15.7185 40.4058L15.2211 40.8983L15.2224 40.8996L15.7185 40.4058ZM15.4239 40.1084L15.9213 39.6158L15.9201 39.6145L15.4239 40.1084ZM15.4239 36.4503L15.9197 36.9445L15.9202 36.944L15.4239 36.4503ZM21.5295 30.3133L21.0338 29.8191L21.0333 29.8196L21.5295 30.3133ZM18.7233 28.55L18.2271 29.0438L18.2271 29.0438L18.7233 28.55ZM19.0193 28.8474L19.5154 28.3536L19.5154 28.3536L19.0193 28.8474ZM19.0193 32.507L19.5154 33.0008L19.0193 32.507ZM15.1843 36.3598L14.6882 35.866L14.6878 35.8663L15.1843 36.3598ZM11.5447 36.3598L12.0409 35.866L12.0383 35.8635L11.5447 36.3598ZM11.2472 36.0639L10.7511 36.5577L10.7536 36.5602L11.2472 36.0639ZM11.2472 32.4043L11.7433 32.8981L11.7435 32.898L11.2472 32.4043ZM15.0807 28.55L14.5845 28.0562L14.5843 28.0564L15.0807 28.55ZM29.8631 42.0095L30.1577 42.3069L31.1524 41.3218L30.8579 41.0244L29.8631 42.0095ZM30.1589 42.3082C30.8876 43.0402 30.8851 44.2501 30.1593 44.9782L31.1508 45.9666C32.4206 44.6928 32.4242 42.5994 31.1512 41.3205L30.1589 42.3082ZM30.1589 44.9786L27.5878 47.5617L28.58 48.5493L31.1512 45.9662L30.1589 44.9786ZM27.5878 47.5617C26.8633 48.2895 25.6643 48.2905 24.9389 47.5617L23.9467 48.5493C25.2199 49.8285 27.3088 49.8264 28.58 48.5493L27.5878 47.5617ZM24.9376 47.5604L24.6416 47.2645L23.6519 48.2547L23.9479 48.5506L24.9376 47.5604ZM24.6429 47.2658C23.9147 46.5342 23.9132 45.3258 24.6425 44.5943L23.651 43.6059C22.3756 44.8853 22.3802 46.9771 23.6506 48.2534L24.6429 47.2658ZM24.6429 44.5939L27.214 42.0108L26.2218 41.0231L23.6506 43.6062L24.6429 44.5939ZM27.2144 42.0104C27.941 41.2793 29.1367 41.2797 29.8644 42.0108L30.8566 41.0231C29.5827 39.7432 27.4964 39.7406 26.2214 41.0235L27.2144 42.0104ZM27.172 36.5423L27.4681 36.8382L28.4578 35.8481L28.1618 35.5522L27.172 36.5423ZM27.4664 36.8366C28.1959 37.5705 28.1943 38.778 27.4668 39.5089L28.4591 40.4965C29.7301 39.2195 29.7316 37.1298 28.4594 35.8497L27.4664 36.8366ZM27.4668 39.5089L23.2802 43.715L24.2725 44.7026L28.4591 40.4965L27.4668 39.5089ZM23.2802 43.715C22.5528 44.4457 21.3556 44.4452 20.6302 43.7153L19.6372 44.7022C20.9105 45.9833 22.9982 45.9828 24.2725 44.7026L23.2802 43.715ZM20.6286 43.7137L20.3326 43.4178L19.3428 44.408L19.6389 44.7039L20.6286 43.7137ZM20.3342 43.4194C19.6059 42.6867 19.605 41.4805 20.3342 40.7468L19.3412 39.7599C18.0688 41.0401 18.0708 43.1281 19.3412 44.4063L20.3342 43.4194ZM20.3337 40.7472L24.5218 36.5412L23.5298 35.5533L19.3417 39.7594L20.3337 40.7472ZM24.5223 36.5407C25.2494 35.8091 26.4433 35.8091 27.1704 36.5407L28.1634 35.5538C26.8889 34.2714 24.8038 34.2714 23.5293 35.5538L24.5223 36.5407ZM24.676 30.8071L24.9721 31.1045L25.9643 30.1169L25.6683 29.8195L24.676 30.8071ZM24.9721 31.1045C25.7005 31.8364 25.6986 33.045 24.9721 33.7749L25.9643 34.7626C27.2334 33.4875 27.2375 31.396 25.9643 30.1169L24.9721 31.1045ZM24.972 33.775L18.8649 39.912L19.8573 40.8995L25.9644 34.7625L24.972 33.775ZM18.8646 39.9123C18.1407 40.6407 16.9405 40.6412 16.2146 39.9119L15.2224 40.8996C16.4951 42.1783 18.5859 42.1788 19.8576 40.8992L18.8646 39.9123ZM16.2159 39.9132L15.9213 39.6158L14.9266 40.6009L15.2211 40.8983L16.2159 39.9132ZM15.9201 39.6145C15.1919 38.8829 15.1904 37.676 15.9197 36.9445L14.9282 35.9561C13.6528 37.2355 13.6574 39.3258 14.9278 40.6022L15.9201 39.6145ZM15.9202 36.944L22.0258 30.807L21.0333 29.8196L14.9277 35.9566L15.9202 36.944ZM22.0253 30.8075C22.7547 30.0757 23.9492 30.0758 24.6756 30.8067L25.6686 29.8198C24.3934 28.5368 22.309 28.5399 21.0338 29.8191L22.0253 30.8075ZM18.2271 29.0438L18.5232 29.3412L19.5154 28.3536L19.2194 28.0562L18.2271 29.0438ZM18.5232 29.3412C19.2504 30.0718 19.2494 31.2835 18.5232 32.0132L19.5154 33.0008C20.7848 31.7255 20.7868 29.6309 19.5154 28.3536L18.5232 29.3412ZM18.5232 32.0132L14.6882 35.866L15.6805 36.8536L19.5154 33.0008L18.5232 32.0132ZM14.6878 35.8663C13.9652 36.5935 12.7665 36.595 12.0409 35.866L11.0486 36.8536C12.3216 38.1325 14.4109 38.131 15.6808 36.8532L14.6878 35.8663ZM12.0383 35.8635L11.7408 35.5675L10.7536 36.5602L11.0511 36.8561L12.0383 35.8635ZM11.7433 35.5701C11.0153 34.8387 11.0134 33.6315 11.7433 32.8981L10.7511 31.9105C9.47639 33.1911 9.48045 35.2812 10.7511 36.5577L11.7433 35.5701ZM11.7435 32.898L15.577 29.0436L14.5843 28.0564L10.7509 31.9107L11.7435 32.898ZM15.5768 29.0438C16.3049 28.3123 17.5009 28.3142 18.2271 29.0438L19.2194 28.0562C17.947 26.7779 15.861 26.7738 14.5845 28.0562L15.5768 29.0438Z" fill="#131313"/>
</svg>
