<svg width="58" height="58" viewBox="0 0 58 58" fill="none" xmlns="http://www.w3.org/2000/svg">
<path d="M25.2656 10.6279C25.2656 11.0145 25.579 11.3279 25.9656 11.3279C26.3522 11.3279 26.6656 11.0145 26.6656 10.6279H25.2656ZM30.7998 12.6277L31.2488 13.1647L31.249 13.1645L30.7998 12.6277ZM28.0967 15.962C28.0827 16.3483 28.3845 16.6729 28.7709 16.6869C29.1572 16.7009 29.4818 16.399 29.4958 16.0127L28.0967 15.962ZM23.1966 16.8377C22.8245 16.9426 22.6079 17.3292 22.7127 17.7013C22.8176 18.0734 23.2042 18.2901 23.5763 18.1853L23.1966 16.8377ZM28.7956 15.9874L28.9856 15.3136C28.8614 15.2786 28.73 15.2786 28.6058 15.3136L28.7956 15.9874ZM34.6664 18.3701C35.0385 18.475 35.4252 18.2584 35.5301 17.8864C35.635 17.5143 35.4184 17.1276 35.0464 17.0226L34.6664 18.3701ZM26.6656 10.6279C26.6656 9.45315 27.6184 8.4998 28.7962 8.4998V7.0998C26.8462 7.0998 25.2656 8.67899 25.2656 10.6279H26.6656ZM28.7962 8.4998C29.9744 8.4998 30.9281 9.45354 30.9281 10.6279H32.3281C32.3281 8.67859 30.7459 7.0998 28.7962 7.0998V8.4998ZM30.9281 10.6279C30.9281 11.2635 30.705 11.7943 30.3507 12.0908L31.249 13.1645C32.0054 12.5317 32.3281 11.5542 32.3281 10.6279H30.9281ZM30.3509 12.0906C29.97 12.409 29.7187 12.5947 29.4278 12.832C29.166 13.0456 28.9125 13.2705 28.7054 13.5523C28.2676 14.1484 28.1365 14.8627 28.0967 15.962L29.4958 16.0127C29.5339 14.9601 29.661 14.6162 29.8337 14.3812C29.9319 14.2475 30.0717 14.1136 30.3128 13.9169C30.5248 13.7439 30.8861 13.4679 31.2488 13.1647L30.3509 12.0906ZM23.5763 18.1853L28.9855 16.6611L28.6058 15.3136L23.1966 16.8377L23.5763 18.1853ZM28.6056 16.6611L34.6664 18.3701L35.0464 17.0226L28.9856 15.3136L28.6056 16.6611Z" fill="black"/>
<path fill-rule="evenodd" clip-rule="evenodd" d="M42.0509 32.4843V48.4906C42.0509 50.5396 40.3899 52.2006 38.3409 52.2006H33.0009C30.9519 52.2006 29.2909 50.5396 29.2909 48.4906V28.3606C29.2909 26.3116 30.9519 24.6506 33.0009 24.6506H38.3409C39.5208 24.6506 40.572 25.2014 41.2515 26.0599C41.6411 25.3843 42.2886 24.8575 43.1014 24.6397C44.7258 24.2044 46.3954 25.1684 46.8307 26.7928L51.4092 43.88C51.8445 45.5044 50.8805 47.1741 49.2561 47.6094C47.6317 48.0446 45.962 47.0807 45.5267 45.4562L42.0509 32.4843Z" fill="#FFEA52"/>
<path fill-rule="evenodd" clip-rule="evenodd" d="M35.332 16.4546L35.388 16.3281C38.6364 17.0166 42.9615 18.0262 45.1527 21.3968L49.8469 45.3828L43.9542 47.3728L39.9531 29.9322V50.5342H36.9069H24.4479H23.3152H20.8012H18.3092V29.9322L14.3081 47.3728L8.41541 45.3828L13.1108 21.3968C15.0961 18.3425 19.5223 17.0397 22.8755 16.3281C24.1507 19.2621 25.4041 22.7811 29.1713 22.8163C33.5501 22.8565 34.0433 19.6112 35.332 16.4546Z" stroke="black" stroke-width="1.4" stroke-linecap="round" stroke-linejoin="round"/>
</svg>
